# xmcd
# 
# Track frame offsets:
#     150
#     18287
#     31947
#     50322
#     65235
#     78697
#     93050
#     112197
#     124180
#     140932
#     158457
#     171465
#     190020
#     206192
# 
# Disc length: 2984
# 
# Revision: 0
# Processed by: cddbd v1.5.2PL0 Copyright (c) Steve Scherf et al.
# Submitted via: fre:ac v1.0.31
# 
DISCID=c70ba60e
DTITLE=Various Artist - Cristina D'Avena e i tuoi amici in TV 12
DYEAR=1999
DGENRE=Anime
TTITLE0=Cristina D'Avena - Sale e Pepe
TTITLE1=Cristina D'Avena - Un uragano di goal
TTITLE2=Cristina D'Avena - Ascolta sempre il cuore Remì
TTITLE3=Giorgio Vanni - L'incredibile Hulk
TTITLE4=Cristina D'Avena - Alvin rock'n roll
TTITLE5=Cristina D'Avena - Imbarchiamoci per un grande viaggio
TTITLE6=Cristina D'Avena - Bad Dog: un cane che più cane non c'è
TTITLE7=Cristina D'Avena - È quasi magia, Johnny!
TTITLE8=Cristina D'Avena - In che mondo stai Beetlejuice!
TTITLE9=Cristina D'Avena con la partecipazione di Pietro Ubaldi - Alf
TTITLE10=Cristina D'Avena - Jem
TTITLE11=Cristina D'Avena - Caccia al tesoro con Montana
TTITLE12=Cristina D'Avena - È un po' magia per Terry e Maggie
TTITLE13=Cristina D'Avena - Peter e Isa: un amore sulla neve
EXTD=
EXTT0=
EXTT1=
EXTT2=
EXTT3=
EXTT4=
EXTT5=
EXTT6=
EXTT7=
EXTT8=
EXTT9=
EXTT10=
EXTT11=
EXTT12=
EXTT13=
PLAYORDER=
